HIERARCHY
ROOT Hips
{
  OFFSET 5.84602e-005 68.8428 3.50346
  CHANNELS 6 Xposition Yposition Zposition Zrotation Xrotation Yrotation
  JOINT Spine
  {
    OFFSET 0 8.597 -4.6522
    CHANNELS 3 Zrotation Xrotation Yrotation
    JOINT Spine1
    {
      OFFSET 0 7.8454 0.4098
      CHANNELS 3 Zrotation Xrotation Yrotation
      JOINT Spine2
      {
        OFFSET 0 9.7078 -2.1609
        CHANNELS 3 Zrotation Xrotation Yrotation
        JOINT Neck
        {
          OFFSET 0 21.8761 -0.4549
          CHANNELS 3 Zrotation Xrotation Yrotation
          JOINT Head
          {
            OFFSET 0 12.3537 3.3602
            CHANNELS 3 Zrotation Xrotation Yrotation
            End Site
            {
              OFFSET 0.0001 18.9506 0.5657
            }
          }
        }
        JOINT LeftShoulder
        {
          OFFSET 2.2086 21.1115 7.2329
          CHANNELS 3 Zrotation Xrotation Yrotation
          JOINT LeftArm
          {
            OFFSET 13.1193 3.0282 -4.8998
            CHANNELS 3 Zrotation Xrotation Yrotation
            JOINT LeftForeArm
            {
              OFFSET 27.4081 -0.0973053 -0.2375
              CHANNELS 3 Zrotation Xrotation Yrotation
              JOINT LeftHand
              {
                OFFSET 22.8641 0.0662994 -0.1369
                CHANNELS 3 Zrotation Xrotation Yrotation
                JOINT LeftHandIndex1
                {
                  OFFSET 8.8614 0.775009 2.4612
                  CHANNELS 3 Zrotation Xrotation Yrotation
                  JOINT LeftHandIndex2
                  {
                    OFFSET 3.3146 -0.808304 0.5841
                    CHANNELS 3 Zrotation Xrotation Yrotation
                    JOINT LeftHandIndex3
                    {
                      OFFSET 2.2628 -0.552002 0.3989
                      CHANNELS 3 Zrotation Xrotation Yrotation
                      End Site
                      {
                        OFFSET 1.6102 -0.4807 0.2612
                      }
                    }
                  }
                }
                JOINT LeftHandMiddle1
                {
                  OFFSET 8.9937 0.895004 0.2143
                  CHANNELS 3 Zrotation Xrotation Yrotation
                  JOINT LeftHandMiddle2
                  {
                    OFFSET 4.0984 0.0113983 -0.0242
                    CHANNELS 3 Zrotation Xrotation Yrotation
                    JOINT LeftHandMiddle3
                    {
                      OFFSET 2.2716 0.00689697 -0.0138001
                      CHANNELS 3 Zrotation Xrotation Yrotation
                      End Site
                      {
                        OFFSET 2.0404 -0.1441 0.0027
                      }
                    }
                  }
                }
                JOINT LeftHandRing1
                {
                  OFFSET 8.5234 0.597198 -2.0164
                  CHANNELS 3 Zrotation Xrotation Yrotation
                  JOINT LeftHandRing2
                  {
                    OFFSET 3.7188 -0.188293 -0.2328
                    CHANNELS 3 Zrotation Xrotation Yrotation
                    JOINT LeftHandRing3
                    {
                      OFFSET 2.1191 -0.106598 -0.1332
                      CHANNELS 3 Zrotation Xrotation Yrotation
                      End Site
                      {
                        OFFSET 1.8737 -0.2304 -0.0886
                      }
                    }
                  }
                }
                JOINT LeftHandPinky1
                {
                  OFFSET 7.9094 -0.601089 -3.4825
                  CHANNELS 3 Zrotation Xrotation Yrotation
                  JOINT LeftHandPinky2
                  {
                    OFFSET 2.2874 -0.477005 -0.6314
                    CHANNELS 3 Zrotation Xrotation Yrotation
                    JOINT LeftHandPinky3
                    {
                      OFFSET 1.6774 -0.349396 -0.4633
                      CHANNELS 3 Zrotation Xrotation Yrotation
                      End Site
                      {
                        OFFSET 1.4888 -0.4091 -0.3416
                      }
                    }
                  }
                }
                JOINT LeftHandThumb1
                {
                  OFFSET 1.833 -1.3875 1.3896
                  CHANNELS 3 Zrotation Xrotation Yrotation
                  JOINT LeftHandThumb2
                  {
                    OFFSET 3.4129 -1.121 2.5732
                    CHANNELS 3 Zrotation Xrotation Yrotation
                    JOINT LeftHandThumb3
                    {
                      OFFSET 2.2474 -0.804199 1.6192
                      CHANNELS 3 Zrotation Xrotation Yrotation
                      End Site
                      {
                        OFFSET 1.6527 -0.5689 1.1317
                      }
                    }
                  }
                }
              }
            }
          }
        }
        JOINT RightShoulder
        {
          OFFSET -2.2086 21.1115 7.2329
          CHANNELS 3 Zrotation Xrotation Yrotation
          JOINT RightArm
          {
            OFFSET -13.1216 3.0287 -4.9007
            CHANNELS 3 Zrotation Xrotation Yrotation
            JOINT RightForeArm
            {
              OFFSET -27.4081 -0.0973053 -0.2375
              CHANNELS 3 Zrotation Xrotation Yrotation
              JOINT RightHand
              {
                OFFSET -22.8641 0.0664063 -0.1369
                CHANNELS 3 Zrotation Xrotation Yrotation
                JOINT RightHandIndex1
                {
                  OFFSET -8.8614 0.774994 2.4612
                  CHANNELS 3 Zrotation Xrotation Yrotation
                  JOINT RightHandIndex2
                  {
                    OFFSET -3.3146 -0.808304 0.5841
                    CHANNELS 3 Zrotation Xrotation Yrotation
                    JOINT RightHandIndex3
                    {
                      OFFSET -2.2628 -0.552002 0.3989
                      CHANNELS 3 Zrotation Xrotation Yrotation
                      End Site
                      {
                        OFFSET -1.6102 -0.4807 0.2612
                      }
                    }
                  }
                }
                JOINT RightHandMiddle1
                {
                  OFFSET -8.9937 0.894989 0.2143
                  CHANNELS 3 Zrotation Xrotation Yrotation
                  JOINT RightHandMiddle2
                  {
                    OFFSET -4.0984 0.0113983 -0.0242
                    CHANNELS 3 Zrotation Xrotation Yrotation
                    JOINT RightHandMiddle3
                    {
                      OFFSET -2.2716 0.00691223 -0.0138001
                      CHANNELS 3 Zrotation Xrotation Yrotation
                      End Site
                      {
                        OFFSET -2.0404 -0.1441 0.0027
                      }
                    }
                  }
                }
                JOINT RightHandRing1
                {
                  OFFSET -8.5234 0.597198 -2.0164
                  CHANNELS 3 Zrotation Xrotation Yrotation
                  JOINT RightHandRing2
                  {
                    OFFSET -3.7188 -0.188309 -0.2328
                    CHANNELS 3 Zrotation Xrotation Yrotation
                    JOINT RightHandRing3
                    {
                      OFFSET -2.1191 -0.106598 -0.1332
                      CHANNELS 3 Zrotation Xrotation Yrotation
                      End Site
                      {
                        OFFSET -1.8737 -0.2304 -0.0886
                      }
                    }
                  }
                }
                JOINT RightHandPinky1
                {
                  OFFSET -7.9094 -0.601105 -3.4825
                  CHANNELS 3 Zrotation Xrotation Yrotation
                  JOINT RightHandPinky2
                  {
                    OFFSET -2.2874 -0.477005 -0.6314
                    CHANNELS 3 Zrotation Xrotation Yrotation
                    JOINT RightHandPinky3
                    {
                      OFFSET -1.6774 -0.349396 -0.4633
                      CHANNELS 3 Zrotation Xrotation Yrotation
                      End Site
                      {
                        OFFSET -1.4888 -0.4091 -0.3416
                      }
                    }
                  }
                }
                JOINT RightHandThumb1
                {
                  OFFSET -1.833 -1.38751 1.3896
                  CHANNELS 3 Zrotation Xrotation Yrotation
                  JOINT RightHandThumb2
                  {
                    OFFSET -3.41299 -1.12099 2.5732
                    CHANNELS 3 Zrotation Xrotation Yrotation
                    JOINT RightHandThumb3
                    {
                      OFFSET -2.24741 -0.804108 1.6192
                      CHANNELS 3 Zrotation Xrotation Yrotation
                      End Site
                      {
                        OFFSET -1.6527 -0.5689 1.1317
                      }
                    }
                  }
                }
              }
            }
          }
        }
      }
    }
  }
  JOINT RightUpLeg
  {
    OFFSET -9.1966 3.8861 -0.7581
    CHANNELS 3 Zrotation Xrotation Yrotation
    JOINT RightLeg
    {
      OFFSET -0.7359 -41.0265 0
      CHANNELS 3 Zrotation Xrotation Yrotation
      JOINT RightFoot
      {
        OFFSET 0 -40.2855 0
        CHANNELS 3 Zrotation Xrotation Yrotation
        JOINT RightToeBase
        {
          OFFSET 0 -5.6122 11.7359
          CHANNELS 3 Zrotation Xrotation Yrotation
          End Site
          {
            OFFSET 0 0 7.8731
          }
        }
      }
    }
  }
  JOINT LeftUpLeg
  {
    OFFSET 9.1965 3.8864 -0.7581
    CHANNELS 3 Zrotation Xrotation Yrotation
    JOINT LeftLeg
    {
      OFFSET 0.7359 -41.0268 0
      CHANNELS 3 Zrotation Xrotation Yrotation
      JOINT LeftFoot
      {
        OFFSET 0 -40.2855 0
        CHANNELS 3 Zrotation Xrotation Yrotation
        JOINT LeftToeBase
        {
          OFFSET 0 -5.6122 11.7359
          CHANNELS 3 Zrotation Xrotation Yrotation
          End Site
          {
            OFFSET 0 0 7.8731
          }
        }
      }
    }
  }
}
MOTION
Frames:	6
Frame Time:	0.0333333
4.60109 21.2594 47.6985 -0.0140974 0.0111947 -135.03 -1.65208 4.17659 6.30626 -3.76975 8.14382 12.7797 -3.76976 8.14381 12.7797 -0.00235991 9.98823 16.2055 0.135517 -22.5949 9.05831 -16.5042 -78.9943 -8.4694 -51.8911 56.6988 4.96011 14.0202 -25.6917 -56.8355 -4.26377 -39.1638 19.5249 -3.69846e-007 -3.39893e-006 -8.75865e-008 -7.95139e-016 -3.18055e-015 -3.97569e-016 1.66621e-007 3.41375e-006 -1.59346e-007 -3.69846e-007 -3.39893e-006 -8.75865e-008 -0.0146096 -8.63156e-005 -3.34039e-007 1.68519e-007 3.41379e-006 -1.5891e-007 -3.69846e-007 -3.39893e-006 -8.75865e-008 -0.0187623 -0.00117692 5.93007e-005 -1.35485e-007 9.91179e-009 -1.64618e-007 -3.69846e-007 -3.39893e-006 -8.75865e-008 -0.012216 -0.00324178 0.000674913 -1.35488e-007 9.90318e-009 -1.64616e-007 -3.69846e-007 -3.39893e-006 -8.75865e-008 -7.95139e-016 -3.18055e-015 -3.97569e-016 1.66621e-007 3.41375e-006 -1.59346e-007 -29.371 -20.1487 -63.9297 38.2044 8.68727 13.2091 7.64435 1.54121 75.5764 13.4466 -41.8088 -9.64262 -4.18683e-006 -8.03333e-007 -6.2632e-007 -1.20329e-006 -7.46186e-007 8.90128e-007 1.20329e-006 7.46186e-007 -8.90128e-007 -4.18683e-006 -8.03333e-007 -6.2632e-007 0.0149982 -9.19219e-005 5.66392e-007 1.20333e-006 7.46069e-007 -8.90227e-007 -4.18683e-006 -8.03333e-007 -6.2632e-007 0.0189932 -0.00119273 -6.15363e-005 1.20334e-006 7.46036e-007 -8.90265e-007 -4.18683e-006 -8.03333e-007 -6.2632e-007 0.0122551 -0.00324664 -0.000675458 1.2033e-006 7.46088e-007 -8.90244e-007 -4.18683e-006 -8.03333e-007 -6.2632e-007 -1.20329e-006 -7.46186e-007 8.90128e-007 1.20329e-006 7.46186e-007 -8.90128e-007 -2.59813 -13.3742 -5.06632 -164.769 62.9547 160.323 -2.98003 23.1522 -9.88015 -1.49236e-006 4.13863e-007 -2.58866e-006 3.4849 -16.7346 5.70741 168.546 62.3075 -164.88 -0.901353 36.3924 -15.5004 1.54622e-006 -2.76793e-006 -4.8107e-007 
4.62727 21.5588 47.7023 -0.0140974 0.0111947 -135.03 -1.43361 3.95182 5.81357 -3.27332 7.73619 11.765 -3.27333 7.73619 11.765 -0.00215795 9.98821 15.0071 0.211265 -23.6592 8.42675 -6.68106 -77.7063 2.49176 -51.8791 56.6975 4.94439 13.7754 -25.4585 -55.6042 -4.44439 -38.7959 18.2833 7.95139e-016 1.59028e-015 5.96354e-016 -3.63338e-007 -4.90758e-010 2.29404e-007 1.01473e-007 -7.71251e-009 1.23568e-007 7.95139e-016 1.59028e-015 5.96354e-016 -0.0146782 -9.17367e-005 -5.36964e-007 1.01473e-007 -7.72835e-009 1.23566e-007 7.95139e-016 1.59028e-015 5.96354e-016 -0.0187735 -0.00117505 5.93669e-005 1.01474e-007 -7.73285e-009 1.23565e-007 7.95139e-016 1.59028e-015 5.96354e-016 -0.0123298 -0.003253 0.000679437 1.01476e-007 -7.72645e-009 1.23564e-007 7.95139e-016 1.59028e-015 5.96354e-016 -3.63338e-007 -4.90758e-010 2.29404e-007 1.01473e-007 -7.71251e-009 1.23568e-007 -28.7326 -22.3265 -60.5959 38.208 8.69707 13.2245 7.66971 1.51034 75.0847 12.3026 -39.8696 -11.5693 3.7074e-007 6.0848e-007 2.27963e-006 9.54166e-015 1.15295e-014 4.37326e-015 -1.19939e-006 -7.52125e-007 8.90133e-007 3.7074e-007 6.0848e-007 2.27963e-006 0.0149927 -8.90725e-005 1.01525e-006 -1.19944e-006 -7.52008e-007 8.90233e-007 3.7074e-007 6.0848e-007 2.27963e-006 0.0189792 -0.00118911 -6.04947e-005 -1.19944e-006 -7.51974e-007 8.9027e-007 3.7074e-007 6.0848e-007 2.27963e-006 0.0122796 -0.00325394 -0.000676832 -1.1994e-006 -7.52027e-007 8.9025e-007 3.7074e-007 6.0848e-007 2.27963e-006 9.54166e-015 1.15295e-014 4.37326e-015 -1.19939e-006 -7.52125e-007 8.90133e-007 -2.59783 -13.3908 -5.02715 -164.628 63.3056 160.214 -3.03012 23.6014 -9.88158 -2.61258e-007 1.62179e-006 -1.81149e-006 3.48489 -16.7546 5.66712 168.457 62.6709 -164.818 -0.881106 36.8516 -15.4972 -2.11935e-007 -1.25386e-006 3.35479e-006 
4.65346 21.8582 47.7062 -0.0140974 0.0111947 -135.03 -1.21494 3.72182 5.32301 -2.77994 7.31365 10.7571 -2.77994 7.31366 10.7572 -0.00201049 9.98822 13.8073 0.274807 -24.7256 7.79074 0.967651 -76.0975 11.2823 -51.8671 56.6961 4.92867 13.5252 -25.2296 -54.3725 -4.61397 -38.4246 17.0484 1.65521e-032 1.59028e-015 -5.96354e-016 -3.37621e-008 2.66219e-009 -4.12353e-008 -1.59028e-015 3.18055e-015 5.96354e-016 1.65521e-032 1.59028e-015 -5.96354e-016 -0.0146148 -8.87674e-005 -6.14068e-008 2.38542e-015 1.59028e-015 -0 1.65521e-032 1.59028e-015 -5.96354e-016 -0.0187936 -0.00117667 5.85977e-005 -1.59028e-015 -4.77083e-015 -1.19271e-015 1.65521e-032 1.59028e-015 -5.96354e-016 -0.012182 -0.00323029 0.000671376 7.95139e-016 3.18055e-015 -1.98785e-016 1.65521e-032 1.59028e-015 -5.96354e-016 -3.37621e-008 2.66219e-009 -4.12353e-008 -1.59028e-015 3.18055e-015 5.96354e-016 -27.9423 -24.4742 -57.1661 38.2115 8.70685 13.2399 7.69482 1.47919 74.5929 11.2714 -37.8993 -13.397 -3.41446e-007 -6.00207e-007 -2.25217e-006 1.19642e-006 7.5713e-007 -8.89519e-007 1.19642e-006 7.5713e-007 -8.89519e-007 -3.41446e-007 -6.00207e-007 -2.25217e-006 0.0149964 -9.27906e-005 -5.40324e-006 -3.42981e-007 -6.00492e-007 -2.25209e-006 -3.41446e-007 -6.00207e-007 -2.25217e-006 0.0189763 -0.00119097 -6.26818e-005 1.19647e-006 7.5698e-007 -8.89657e-007 -3.41446e-007 -6.00207e-007 -2.25217e-006 0.0122709 -0.00324321 -0.000670495 1.19643e-006 7.57032e-007 -8.89636e-007 -3.41446e-007 -6.00207e-007 -2.25217e-006 1.19642e-006 7.5713e-007 -8.89519e-007 1.19642e-006 7.5713e-007 -8.89519e-007 -2.59753 -13.4071 -4.98839 -164.482 63.6568 160.101 -3.08049 24.0506 -9.88277 -7.62379e-006 1.95416e-007 4.27296e-007 3.48487 -16.7746 5.62722 168.367 63.0343 -164.754 -0.86064 37.3108 -15.494 -2.77287e-007 7.80812e-006 -6.40937e-007 
4.67965 22.1576 47.71 -0.0140974 0.0111947 -135.03 -0.996194 3.48678 4.83497 -2.29007 6.87647 9.75647 -2.29007 6.87647 9.75643 -0.00185249 9.98832 12.6064 0.325783 -25.7935 7.14974 6.81606 -74.2685 18.2761 -51.8551 56.6947 4.91293 13.2698 -25.0056 -53.1404 -4.77267 -38.0503 15.82 -6.89377e-008 6.2617e-006 3.9669e-007 -8.42133e-008 6.8597e-009 -1.03233e-007 -5.0528e-008 4.1158e-009 -6.19399e-008 -6.89377e-008 6.2617e-006 3.9669e-007 -0.0146123 -8.69269e-005 -8.66254e-007 -5.0528e-008 4.1237e-009 -6.19394e-008 -6.89377e-008 6.2617e-006 3.9669e-007 -0.0187531 -0.00118445 5.78777e-005 -5.05286e-008 4.12597e-009 -6.19387e-008 -6.89377e-008 6.2617e-006 3.9669e-007 -0.0122104 -0.00323109 0.000672256 -8.72174e-008 6.26264e-006 3.76795e-007 -6.89377e-008 6.2617e-006 3.9669e-007 -8.42133e-008 6.8597e-009 -1.03233e-007 -5.0528e-008 4.1158e-009 -6.19399e-008 -26.9927 -26.58 -53.6335 38.2151 8.71664 13.2553 7.71966 1.44788 74.101 10.3437 -35.9033 -15.1358 -3.18055e-015 9.14409e-015 2.38542e-015 -1.19434e-006 -7.61302e-007 8.88215e-007 -2.38868e-006 -1.5226e-006 1.77643e-006 -3.18055e-015 9.14409e-015 2.38542e-015 0.0149868 -0.000100006 -5.5054e-006 -2.38877e-006 -1.52237e-006 1.77663e-006 -3.18055e-015 9.14409e-015 2.38542e-015 0.0190143 -0.00119343 -5.51864e-005 -2.38878e-006 -1.5223e-006 1.77671e-006 -3.18055e-015 9.14409e-015 2.38542e-015 0.0122564 -0.003242 -0.000674952 -2.3887e-006 -1.52241e-006 1.77666e-006 -3.18055e-015 9.14409e-015 2.38542e-015 -1.19434e-006 -7.61302e-007 8.88215e-007 -2.38868e-006 -1.5226e-006 1.77643e-006 -2.59743 -13.4193 -4.95009 -164.331 64.0116 159.981 -3.13118 24.4999 -9.88369 -6.4751e-007 -4.01255e-007 3.7158e-007 3.48487 -16.7947 5.58769 168.274 63.3974 -164.687 -0.839999 37.77 -15.4909 1.64146e-006 -1.31417e-006 -1.34e-006 
4.70585 22.457 47.7138 -0.0140974 0.0111947 -135.03 -0.777527 3.2468 4.34948 -1.80412 6.42491 8.76348 -1.80412 6.42491 8.76348 -0.00165586 9.98825 11.4047 0.363865 -26.8627 6.5034 11.3478 -72.2566 23.9167 -51.8431 56.6933 4.89722 13.0094 -24.7864 -51.9084 -4.92051 -37.6731 14.5984 2.4185e-007 -2.03021e-008 2.98049e-007 4.56419e-008 -3.83143e-009 5.62478e-008 -2.57064e-008 2.15791e-009 -3.16798e-008 2.4185e-007 -2.03021e-008 2.98049e-007 -0.0145305 -8.47996e-005 3.43665e-007 -2.54441e-008 2.13989e-009 -3.13562e-008 2.4185e-007 -2.03021e-008 2.98049e-007 -0.01877 -0.00117734 5.8976e-005 -2.55427e-008 2.14933e-009 -3.14771e-008 2.4185e-007 -2.03021e-008 2.98049e-007 -0.0123641 -0.00327511 0.000682338 -2.54449e-008 2.13945e-009 -3.13555e-008 2.4185e-007 -2.03021e-008 2.98049e-007 4.56419e-008 -3.83143e-009 5.62478e-008 -2.57064e-008 2.15791e-009 -3.16798e-008 -25.8791 -28.6277 -49.9938 38.2187 8.72644 13.2707 7.74423 1.41634 73.6091 9.51166 -33.8862 -16.7935 3.86217e-032 -2.78299e-015 7.95139e-016 -1.19313e-006 -7.6478e-007 8.86111e-007 -3.18055e-015 7.95139e-016 -3.97569e-016 3.86217e-032 -2.78299e-015 7.95139e-016 0.0149679 -9.3778e-005 -1.39995e-006 -3.18055e-015 -7.95139e-016 3.18055e-015 3.86217e-032 -2.78299e-015 7.95139e-016 0.0189973 -0.00119567 -6.5027e-005 3.03456e-032 4.37326e-015 -3.97569e-016 3.86217e-032 -2.78299e-015 7.95139e-016 0.0122624 -0.00324077 -0.000675425 -9.54166e-015 4.77083e-015 -0 3.86217e-032 -2.78299e-015 7.95139e-016 -1.19313e-006 -7.6478e-007 8.86111e-007 -3.18055e-015 7.95139e-016 -3.97569e-016 -2.59712 -13.4356 -4.91204 -164.179 64.3623 159.86 -3.18217 24.9491 -9.88429 8.4684e-007 1.01575e-005 2.17871e-006 3.48489 -16.815 5.54855 168.179 63.7603 -164.618 -0.819099 38.2291 -15.4878 4.37501e-006 3.57525e-006 -5.10316e-006 
4.73205 22.7564 47.7177 -0.0140974 0.0111947 -135.03 -0.55903 3.00197 3.86688 -1.3225 5.95928 7.77879 -1.3225 5.95928 7.77881 -0.00149022 9.98825 10.2026 0.388681 -27.9327 5.85132 14.4875 -70.333 28.3834 -51.831 56.6919 4.88148 12.7441 -24.572 -50.6768 -5.05744 -37.2933 13.3838 5.03346e-008 -4.30294e-009 6.20846e-008 3.07334e-007 3.30047e-006 -2.2626e-007 4.76368e-009 6.29837e-006 4.98639e-007 5.03346e-008 -4.30294e-009 6.20846e-008 -0.0146104 -9.51528e-005 -5.24763e-007 1.13795e-008 6.29758e-006 5.0979e-007 5.03346e-008 -4.30294e-009 6.20846e-008 -0.0188741 -0.00119188 5.89171e-005 3.35568e-008 -2.87547e-009 4.13889e-008 5.03346e-008 -4.30294e-009 6.20846e-008 -0.0123658 -0.00328595 0.000682295 3.35576e-008 -2.8733e-009 4.13885e-008 5.03346e-008 -4.30294e-009 6.20846e-008 3.07334e-007 3.30047e-006 -2.2626e-007 4.76368e-009 6.29837e-006 4.98639e-007 -24.5982 -30.6024 -46.2449 38.2223 8.73624 13.2861 7.76853 1.38455 73.1171 8.76829 -31.8524 -18.3773 1.19274e-006 7.67703e-007 -8.8312e-007 6.36111e-015 5.1684e-015 -1.19271e-015 1.19274e-006 7.67703e-007 -8.8312e-007 1.19274e-006 7.67703e-007 -8.8312e-007 0.015009 -9.31836e-005 -4.62644e-006 1.19278e-006 7.67587e-007 -8.83221e-007 1.19274e-006 7.67703e-007 -8.8312e-007 0.0189823 -0.00118865 -5.94417e-005 1.19278e-006 7.67554e-007 -8.8326e-007 1.19274e-006 7.67703e-007 -8.8312e-007 0.0122399 -0.00323599 -0.000673457 1.19274e-006 7.67606e-007 -8.83238e-007 1.19274e-006 7.67703e-007 -8.8312e-007 6.36111e-015 5.1684e-015 -1.19271e-015 1.19274e-006 7.67703e-007 -8.8312e-007 -2.59683 -13.4516 -4.87437 -164.022 64.7132 159.735 -3.23347 25.3984 -9.88462 1.94322e-006 1.20575e-006 -1.11172e-006 3.48491 -16.8355 5.50977 168.082 64.1229 -164.547 -0.798 38.6882 -15.4848 -1.38566e-006 -7.74373e-007 5.82114e-007 
